<svg id="基础版" xmlns="http://www.w3.org/2000/svg" xmlns:xlink="http://www.w3.org/1999/xlink" viewBox="0 0 554.85 570.78"><defs><style>.cls-1{fill:url(#未命名的渐变_60);}.cls-2{fill:url(#未命名的渐变_89);}.cls-3{fill:url(#未命名的渐变_89-2);}.cls-4{fill:#fff;}.cls-5{fill:#035cf9;}.cls-6{fill:#48ddff;}.cls-7{fill:url(#未命名的渐变_60-2);}.cls-8{fill:url(#未命名的渐变_89-3);}.cls-9{fill:url(#未命名的渐变_43);}</style><linearGradient id="未命名的渐变_60" x1="277.42" y1="533.74" x2="277.42" y2="37.04" gradientUnits="userSpaceOnUse"><stop offset="0" stop-color="#0071ff"/><stop offset="1" stop-color="#009bff"/></linearGradient><linearGradient id="未命名的渐变_89" x1="120.7" y1="354.79" x2="434.14" y2="354.79" gradientUnits="userSpaceOnUse"><stop offset="0" stop-color="#0050fa"/><stop offset="1" stop-color="#00a0ff" stop-opacity="0"/></linearGradient><linearGradient id="未命名的渐变_89-2" x1="-1522.24" y1="492.44" x2="-1208.8" y2="492.44" gradientTransform="translate(-1088.1 665.15) rotate(180)" xlink:href="#未命名的渐变_89"/><linearGradient id="未命名的渐变_60-2" x1="212.86" y1="275.82" x2="212.86" y2="209.95" xlink:href="#未命名的渐变_60"/><linearGradient id="未命名的渐变_89-3" x1="191.99" y1="252.09" x2="233.57" y2="252.09" xlink:href="#未命名的渐变_89"/><linearGradient id="未命名的渐变_43" x1="222.15" y1="259.18" x2="222.15" y2="217.42" gradientUnits="userSpaceOnUse"><stop offset="0" stop-color="#00a0dc"/><stop offset="1" stop-color="#3cfaff"/></linearGradient></defs><title>OpenKruiseGame</title><circle class="cls-1" cx="277.42" cy="285.39" r="248.35"/><path class="cls-2" d="M416.67,387.12a157.42,157.42,0,0,1-215-57.63c.06-.16.12-.27.19-.43-15.06-26.35-16.44-59.6-.17-87.77A88,88,0,0,1,271,197.55c-83.59,3.77-150.26,72.53-150.26,157.06a157.41,157.41,0,0,0,313.44,20.76A159.53,159.53,0,0,1,416.67,387.12Z"/><path class="cls-3" d="M138.18,177a157.42,157.42,0,0,1,215,57.62L353,235c15.06,26.35,18.37,22.2,2.1,50.38-15.05,26.07-1.8-20.14-29.69-17.86,83.59-3.77,108.7,26.46,108.7-58.07A157.41,157.41,0,0,0,120.7,188.7,159.66,159.66,0,0,1,138.18,177Z"/><path class="cls-4" d="M220.74,147.08c-11.41-3.42-23.18-6.23-34.28-1.91-79.81,31-120.19,239.29-56.14,239.29,58.8,0,66.58-72.5,146.12-71.77,69.07.64,108.18,70.9,151.41,70.9,61.25,0,14.89-212.43-62.13-237.87-9.43-3.11-22.26-1.95-31.64,1.3C276.66,166.89,276.88,163.91,220.74,147.08Z"/><path class="cls-5" d="M220.74,190.43c-11.41-3.42-23.18-6.22-34.28-1.91-79.81,31-120.19,239.29-56.14,239.29,58.8,0,66.58-72.49,146.12-71.76,69.07.64,108.18,70.9,151.41,70.9,61.25,0,15.25-213.87-61.77-239.31-9.42-3.11-25.79-.73-35.17,2.52C273.49,210,276.88,207.27,220.74,190.43Z"/><path class="cls-4" d="M220.74,159c-11.41-3.42-23.18-6.22-34.28-1.91-79.81,31-120.19,239.29-56.14,239.29,58.8,0,66.58-72.5,146.12-71.76,69.07.63,108.18,70.9,151.41,70.9,61.25,0,15.25-213.87-61.77-239.31-9.42-3.11-25.79-.73-35.17,2.52C273.49,178.63,276.88,175.86,220.74,159Z"/><path class="cls-6" d="M220.74,159c-11.41-3.42-23.18-6.22-34.28-1.91-79.81,31-120.19,239.29-56.14,239.29,58.8,0,66.58-72.5,146.12-71.76,69.07.63,108.18,70.9,151.41,70.9,61.25,0,15.25-213.87-61.77-239.31-9.42-3.11-25.79-.73-35.17,2.52C273.49,178.63,276.88,175.86,220.74,159Z"/><path class="cls-4" d="M369.91,252.49A13.46,13.46,0,0,1,373.09,231a12.9,12.9,0,0,1,12.68,0,13.49,13.49,0,1,1-15.86,21.45Z"/><path class="cls-4" d="M341,223.54a13.49,13.49,0,0,1,3.18-21.48,12.9,12.9,0,0,1,12.68,0A13.5,13.5,0,1,1,341,223.54Z"/><path class="cls-4" d="M341,281.44A13.45,13.45,0,0,1,344.13,260a12.9,12.9,0,0,1,12.68,0A13.48,13.48,0,1,1,341,281.44Z"/><path class="cls-4" d="M312,252.49A13.46,13.46,0,0,1,315.18,231a12.9,12.9,0,0,1,12.68,0A13.49,13.49,0,1,1,312,252.49Z"/><path class="cls-4" d="M212.86,293.93c-33.33,0-58.58-30.94-49-66.06a48.85,48.85,0,0,1,34-34c35.11-9.6,66.07,15.66,66.07,49,0,28.46-23.56,51-51.05,51Z"/><path class="cls-7" d="M212.86,210a32.94,32.94,0,1,0,32.94,32.94A32.94,32.94,0,0,0,212.86,210Zm0,44.63a11.7,11.7,0,1,1,11.7-11.69A11.69,11.69,0,0,1,212.87,254.58Z"/><path class="cls-8" d="M231.25,256.38a20.89,20.89,0,0,1-28.52-7.64l0-.06a11.65,11.65,0,0,1,9.17-17.45,20.87,20.87,0,1,0,21.65,23.59A20.88,20.88,0,0,1,231.25,256.38Z"/><path class="cls-9" d="M238.89,227.86a20.87,20.87,0,0,0-26-8.87,20.47,20.47,0,0,1,2.49,1.22A20.88,20.88,0,0,1,223,248.74a8,8,0,0,1-1,1.42,11.59,11.59,0,0,1-19.35-1.7c0,.08.06.2.11.28a20.88,20.88,0,0,0,36.16-20.88Z"/></svg>